<svg width="30" height="30" viewBox="0 0 30 30" fill="none" xmlns="http://www.w3.org/2000/svg">
<path d="M25.3125 1.875H4.6875C3.13418 1.875 1.875 3.13418 1.875 4.6875V25.3125C1.875 26.8658 3.13418 28.125 4.6875 28.125H25.3125C26.8658 28.125 28.125 26.8658 28.125 25.3125V4.6875C28.125 3.13418 26.8658 1.875 25.3125 1.875ZM7.38281 24.375C6.97072 24.375 6.61775 24.0895 6.52641 23.6937L5.64762 19.8851C5.60128 19.6843 5.62698 19.4736 5.72023 19.2898C5.81349 19.106 5.96836 18.9609 6.15779 18.8797L10.2592 17.1219C10.4344 17.0468 10.6293 17.0307 10.8144 17.0761C10.9996 17.1214 11.165 17.2257 11.2857 17.3732L13.1019 19.593C15.9697 18.2476 18.2756 15.91 19.593 13.102L17.3731 11.2858C17.2256 11.1651 17.1213 10.9997 17.076 10.8146C17.0306 10.6294 17.0467 10.4346 17.1218 10.2594L18.8796 6.15791C18.9608 5.96848 19.106 5.8136 19.2898 5.72035C19.4735 5.6271 19.6843 5.60139 19.8851 5.64773L23.6937 6.52652C23.8873 6.57117 24.0601 6.68015 24.1839 6.83567C24.3076 6.99119 24.375 7.18407 24.375 7.38281C24.375 16.7749 16.761 24.375 7.38281 24.375Z" fill="#0B4CFF"/>
</svg>
